<?xml version="1.0"?>
<svg xmlns="http://www.w3.org/2000/svg" xmlns:xlink="http://www.w3.org/1999/xlink" xmlns:svgjs="http://svgjs.com/svgjs" version="1.1" width="512" height="512" x="0" y="0" viewBox="0 0 511.994 511.994" style="enable-background:new 0 0 512 512" xml:space="preserve" class=""><g><g xmlns="http://www.w3.org/2000/svg"><path d="m255.997 0-221.7 127.999v255.997l221.7 127.999 221.7-127.999v-255.997zm191.7 349.355-64.019-36.962v-130.112l-112.681-65.057v-73.923l176.7 102.018zm-191.7-206.15 82.681 47.736-82.681 47.736-82.681-47.736zm-97.681 73.716 82.681 47.736v95.472l-82.681-47.736zm112.681 47.736 82.681-47.736v95.472l-82.681 47.736zm-30-221.356v73.923l-112.681 65.057v130.112l-64.019 36.962v-204.036zm-161.7 332.034 64.019-36.962 112.681 65.057 112.681-65.057 64.019 36.962-176.7 102.019z" fill="#645f5f" data-original="#000000" style="" class=""/></g></g></svg>
